<svg id="Layer_1" height="512" viewBox="0 0 128 128" width="512" xmlns="http://www.w3.org/2000/svg" data-name="Layer 1"><path d="m6.5 24.19h115v79.62h-115z" fill="#e57e25"/><g fill="#e6e7e8"><path d="m116 42.75h5.5v-3.5h-5.5a24.75 24.75 0 0 0 0 49.5h5.5v-3.5h-5.5a21.25 21.25 0 0 1 0-42.5z"/><path d="m111.81 59.75h9.69v-3.5h-9.69a7.75 7.75 0 0 0 0 15.5h9.69v-3.5h-9.69a4.25 4.25 0 0 1 0-8.5z"/><path d="m33.25 64a21.271 21.271 0 0 1 -21.25 21.25h-5.5v3.5h5.5a24.75 24.75 0 0 0 0-49.5h-5.5v3.5h5.5a21.271 21.271 0 0 1 21.25 21.25z"/><path d="m20.44 64a4.259 4.259 0 0 1 -4.25 4.25h-9.69v3.5h9.69a7.75 7.75 0 0 0 0-15.5h-9.69v3.5h9.69a4.259 4.259 0 0 1 4.25 4.25z"/><path d="m77.75 64a13.761 13.761 0 0 0 -12-13.626v-26.184h-3.5v26.184a13.736 13.736 0 0 0 0 27.252v26.184h3.5v-26.184a13.761 13.761 0 0 0 12-13.626zm-24 0a10.257 10.257 0 0 1 8.5-10.089v20.178a10.257 10.257 0 0 1 -8.5-10.089zm12 10.089v-20.178a10.238 10.238 0 0 1 0 20.178z"/></g></svg>